<?xml version="1.0" encoding="UTF-8" standalone="no"?>
<!DOCTYPE svg PUBLIC "-//W3C//DTD SVG 1.1//EN"
 "http://www.w3.org/Graphics/SVG/1.1/DTD/svg11.dtd">
<!-- Generated by graphviz version 12.1.2 (20240928.0832)
 -->
<!-- Title: _sqlx_test.databases Pages: 1 -->
<svg width="385pt" height="228pt"
 viewBox="0.00 0.00 385.36 228.40" xmlns="http://www.w3.org/2000/svg" xmlns:xlink="http://www.w3.org/1999/xlink">
<g id="graph0" class="graph" transform="scale(1 1) rotate(0) translate(4 224.4)">
<title>_sqlx_test.databases</title>
<polygon fill="white" stroke="none" points="-4,4 -4,-224.4 381.36,-224.4 381.36,4 -4,4"/>
<!-- _sqlx_test.databases -->
<g id="node1" class="node">
<title>_sqlx_test.databases</title>
<polygon fill="#efefef" stroke="none" points="46.2,-138.6 46.2,-174.2 331.16,-174.2 331.16,-138.6 46.2,-138.6"/>
<polygon fill="none" stroke="black" points="46.2,-138.6 46.2,-174.2 331.16,-174.2 331.16,-138.6 46.2,-138.6"/>
<text text-anchor="start" x="53.2" y="-152" font-family="Arial Bold" font-size="18.00">_sqlx_test.databases</text>
<text text-anchor="start" x="199.67" y="-152" font-family="Arial" font-size="14.00">    </text>
<text text-anchor="start" x="230.79" y="-152" font-family="Arial" font-size="14.00" fill="#666666">[BASE TABLE]</text>
<polygon fill="none" stroke="black" points="46.2,-107.8 46.2,-138.6 331.16,-138.6 331.16,-107.8 46.2,-107.8"/>
<text text-anchor="start" x="53.2" y="-120" font-family="Arial" font-size="14.00">db_name </text>
<text text-anchor="start" x="115.47" y="-120" font-family="Arial" font-size="14.00" fill="#666666">[text]</text>
<polygon fill="none" stroke="black" points="46.2,-77 46.2,-107.8 331.16,-107.8 331.16,-77 46.2,-77"/>
<text text-anchor="start" x="53.2" y="-89.2" font-family="Arial" font-size="14.00">test_path </text>
<text text-anchor="start" x="114.69" y="-89.2" font-family="Arial" font-size="14.00" fill="#666666">[text]</text>
<polygon fill="none" stroke="black" points="46.2,-46.2 46.2,-77 331.16,-77 331.16,-46.2 46.2,-46.2"/>
<text text-anchor="start" x="53.2" y="-58.4" font-family="Arial" font-size="14.00">created_at </text>
<text text-anchor="start" x="123.25" y="-58.4" font-family="Arial" font-size="14.00" fill="#666666">[timestamp with time zone]</text>
<polygon fill="none" stroke="black" stroke-width="3" points="44.7,-44.7 44.7,-175.7 332.66,-175.7 332.66,-44.7 44.7,-44.7"/>
</g>
</g>
</svg>
