<?xml version="1.0" encoding="UTF-8" standalone="no"?>
<!DOCTYPE svg PUBLIC "-//W3C//DTD SVG 1.1//EN"
 "http://www.w3.org/Graphics/SVG/1.1/DTD/svg11.dtd">
<!-- Generated by graphviz version 12.1.2 (20240928.0832)
 -->
<!-- Title: public.months Pages: 1 -->
<svg width="796pt" height="602pt"
 viewBox="0.00 0.00 796.35 602.00" xmlns="http://www.w3.org/2000/svg" xmlns:xlink="http://www.w3.org/1999/xlink">
<g id="graph0" class="graph" transform="scale(1 1) rotate(0) translate(4 598)">
<title>public.months</title>
<polygon fill="white" stroke="none" points="-4,4 -4,-598 792.35,-598 792.35,4 -4,4"/>
<!-- public.months -->
<g id="node1" class="node">
<title>public.months</title>
<polygon fill="#efefef" stroke="none" points="285.68,-138.6 285.68,-174.2 526.67,-174.2 526.67,-138.6 285.68,-138.6"/>
<polygon fill="none" stroke="black" points="285.68,-138.6 285.68,-174.2 526.67,-174.2 526.67,-138.6 285.68,-138.6"/>
<text text-anchor="start" x="292.68" y="-152" font-family="Arial Bold" font-size="18.00">public.months</text>
<text text-anchor="start" x="395.18" y="-152" font-family="Arial" font-size="14.00">    </text>
<text text-anchor="start" x="426.3" y="-152" font-family="Arial" font-size="14.00" fill="#666666">[BASE TABLE]</text>
<polygon fill="none" stroke="black" points="285.68,-107.8 285.68,-138.6 526.67,-138.6 526.67,-107.8 285.68,-107.8"/>
<text text-anchor="start" x="292.68" y="-120" font-family="Arial" font-size="14.00">id </text>
<text text-anchor="start" x="307.47" y="-120" font-family="Arial" font-size="14.00" fill="#666666">[uuid]</text>
<polygon fill="none" stroke="black" points="285.68,-77 285.68,-107.8 526.67,-107.8 526.67,-77 285.68,-77"/>
<text text-anchor="start" x="292.68" y="-89.2" font-family="Arial" font-size="14.00">year </text>
<text text-anchor="start" x="323.8" y="-89.2" font-family="Arial" font-size="14.00" fill="#666666">[integer]</text>
<polygon fill="none" stroke="black" points="285.68,-46.2 285.68,-77 526.67,-77 526.67,-46.2 285.68,-46.2"/>
<text text-anchor="start" x="292.68" y="-58.4" font-family="Arial" font-size="14.00">month </text>
<text text-anchor="start" x="335.48" y="-58.4" font-family="Arial" font-size="14.00" fill="#666666">[text]</text>
<polygon fill="none" stroke="black" stroke-width="3" points="284.18,-44.7 284.18,-175.7 528.17,-175.7 528.17,-44.7 284.18,-44.7"/>
</g>
<!-- public.budget_allocations -->
<g id="node2" class="node">
<title>public.budget_allocations</title>
<polygon fill="#efefef" stroke="none" points="43.2,-484.4 43.2,-520 367.15,-520 367.15,-484.4 43.2,-484.4"/>
<polygon fill="none" stroke="black" points="43.2,-484.4 43.2,-520 367.15,-520 367.15,-484.4 43.2,-484.4"/>
<text text-anchor="start" x="50.2" y="-497.8" font-family="Arial Bold" font-size="18.00">public.budget_allocations</text>
<text text-anchor="start" x="235.66" y="-497.8" font-family="Arial" font-size="14.00">    </text>
<text text-anchor="start" x="266.78" y="-497.8" font-family="Arial" font-size="14.00" fill="#666666">[BASE TABLE]</text>
<polygon fill="none" stroke="black" points="43.2,-453.6 43.2,-484.4 367.15,-484.4 367.15,-453.6 43.2,-453.6"/>
<text text-anchor="start" x="50.2" y="-465.8" font-family="Arial" font-size="14.00">id </text>
<text text-anchor="start" x="64.99" y="-465.8" font-family="Arial" font-size="14.00" fill="#666666">[uuid]</text>
<polygon fill="none" stroke="black" points="43.2,-422.8 43.2,-453.6 367.15,-453.6 367.15,-422.8 43.2,-422.8"/>
<text text-anchor="start" x="50.2" y="-435" font-family="Arial" font-size="14.00">month_id </text>
<text text-anchor="start" x="111.68" y="-435" font-family="Arial" font-size="14.00" fill="#666666">[uuid]</text>
<polygon fill="none" stroke="black" points="43.2,-392 43.2,-422.8 367.15,-422.8 367.15,-392 43.2,-392"/>
<text text-anchor="start" x="50.2" y="-404.2" font-family="Arial" font-size="14.00">percentage_allocation </text>
<text text-anchor="start" x="191.08" y="-404.2" font-family="Arial" font-size="14.00" fill="#666666">[numeric(5,2)]</text>
<polygon fill="none" stroke="black" points="43.2,-361.2 43.2,-392 367.15,-392 367.15,-361.2 43.2,-361.2"/>
<text text-anchor="start" x="50.2" y="-373.4" font-family="Arial" font-size="14.00">contribution_amount </text>
<text text-anchor="start" x="180.95" y="-373.4" font-family="Arial" font-size="14.00" fill="#666666">[numeric(10,2)]</text>
<polygon fill="none" stroke="black" points="43.2,-330.4 43.2,-361.2 367.15,-361.2 367.15,-330.4 43.2,-330.4"/>
<text text-anchor="start" x="50.2" y="-342.6" font-family="Arial" font-size="14.00">user_id </text>
<text text-anchor="start" x="100.01" y="-342.6" font-family="Arial" font-size="14.00" fill="#666666">[uuid]</text>
</g>
<!-- public.budget_allocations&#45;&gt;public.months -->
<g id="edge1" class="edge">
<title>public.budget_allocations:month_id&#45;&gt;public.months:id</title>
<path fill="none" stroke="black" d="M378.55,-437.35C430.85,-428.05 394.42,-344.34 367.15,-287.2 346.98,-244.94 305.93,-262.62 285.68,-220.4 267,-181.45 241.48,-123.2 284.68,-123.2"/>
<polygon fill="black" stroke="black" points="378.45,-437.36 368.11,-433.69 373.13,-437.79 368.81,-438.15 368.81,-438.15 368.81,-438.15 373.13,-437.79 368.85,-442.66 378.45,-437.36"/>
<text text-anchor="start" x="375.15" y="-448.2" font-family="Arial" font-size="10.00">FOREIGN KEY (month_id) REFERENCES months(id)</text>
</g>
<!-- public.transactions -->
<g id="node3" class="node">
<title>public.transactions</title>
<polygon fill="#efefef" stroke="none" points="471.2,-515.2 471.2,-550.8 745.15,-550.8 745.15,-515.2 471.2,-515.2"/>
<polygon fill="none" stroke="black" points="471.2,-515.2 471.2,-550.8 745.15,-550.8 745.15,-515.2 471.2,-515.2"/>
<text text-anchor="start" x="478.2" y="-528.6" font-family="Arial Bold" font-size="18.00">public.transactions</text>
<text text-anchor="start" x="613.66" y="-528.6" font-family="Arial" font-size="14.00">    </text>
<text text-anchor="start" x="644.78" y="-528.6" font-family="Arial" font-size="14.00" fill="#666666">[BASE TABLE]</text>
<polygon fill="none" stroke="black" points="471.2,-484.4 471.2,-515.2 745.15,-515.2 745.15,-484.4 471.2,-484.4"/>
<text text-anchor="start" x="478.2" y="-496.6" font-family="Arial" font-size="14.00">id </text>
<text text-anchor="start" x="492.98" y="-496.6" font-family="Arial" font-size="14.00" fill="#666666">[uuid]</text>
<polygon fill="none" stroke="black" points="471.2,-453.6 471.2,-484.4 745.15,-484.4 745.15,-453.6 471.2,-453.6"/>
<text text-anchor="start" x="478.2" y="-465.8" font-family="Arial" font-size="14.00">month_id </text>
<text text-anchor="start" x="539.68" y="-465.8" font-family="Arial" font-size="14.00" fill="#666666">[uuid]</text>
<polygon fill="none" stroke="black" points="471.2,-422.8 471.2,-453.6 745.15,-453.6 745.15,-422.8 471.2,-422.8"/>
<text text-anchor="start" x="478.2" y="-435" font-family="Arial" font-size="14.00">amount </text>
<text text-anchor="start" x="528.78" y="-435" font-family="Arial" font-size="14.00" fill="#666666">[numeric(10,2)]</text>
<polygon fill="none" stroke="black" points="471.2,-392 471.2,-422.8 745.15,-422.8 745.15,-392 471.2,-392"/>
<text text-anchor="start" x="478.2" y="-404.2" font-family="Arial" font-size="14.00">date </text>
<text text-anchor="start" x="509.33" y="-404.2" font-family="Arial" font-size="14.00" fill="#666666">[timestamp with time zone]</text>
<polygon fill="none" stroke="black" points="471.2,-361.2 471.2,-392 745.15,-392 745.15,-361.2 471.2,-361.2"/>
<text text-anchor="start" x="478.2" y="-373.4" font-family="Arial" font-size="14.00">description </text>
<text text-anchor="start" x="549.79" y="-373.4" font-family="Arial" font-size="14.00" fill="#666666">[text]</text>
<polygon fill="none" stroke="black" points="471.2,-330.4 471.2,-361.2 745.15,-361.2 745.15,-330.4 471.2,-330.4"/>
<text text-anchor="start" x="478.2" y="-342.6" font-family="Arial" font-size="14.00">notes </text>
<text text-anchor="start" x="516.33" y="-342.6" font-family="Arial" font-size="14.00" fill="#666666">[text]</text>
<polygon fill="none" stroke="black" points="471.2,-299.6 471.2,-330.4 745.15,-330.4 745.15,-299.6 471.2,-299.6"/>
<text text-anchor="start" x="478.2" y="-311.8" font-family="Arial" font-size="14.00">split_mode </text>
<text text-anchor="start" x="549.79" y="-311.8" font-family="Arial" font-size="14.00" fill="#666666">[split_mode]</text>
</g>
<!-- public.transactions&#45;&gt;public.months -->
<g id="edge2" class="edge">
<title>public.transactions:month_id&#45;&gt;public.months:id</title>
<path fill="none" stroke="black" d="M460.42,-466.01C426.93,-443.05 450.32,-294.62 471.2,-256.4 485.28,-230.61 512.51,-246.15 526.67,-220.4 547.48,-182.54 570.87,-123.2 527.67,-123.2"/>
<polygon fill="black" stroke="black" points="460.31,-465.98 468.56,-473.21 465.41,-467.54 469.56,-468.8 469.56,-468.8 469.56,-468.8 465.41,-467.54 471.19,-464.6 460.31,-465.98"/>
<text text-anchor="start" x="477.2" y="-479" font-family="Arial" font-size="10.00">FOREIGN KEY (month_id) REFERENCES months(id)</text>
</g>
</g>
</svg>
