<?xml version="1.0" encoding="UTF-8" standalone="no"?>
<!DOCTYPE svg PUBLIC "-//W3C//DTD SVG 1.1//EN"
 "http://www.w3.org/Graphics/SVG/1.1/DTD/svg11.dtd">
<!-- Generated by graphviz version 12.1.2 (20240928.0832)
 -->
<!-- Title: public.firefly_transactions Pages: 1 -->
<svg width="982pt" height="664pt"
 viewBox="0.00 0.00 982.19 663.60" xmlns="http://www.w3.org/2000/svg" xmlns:xlink="http://www.w3.org/1999/xlink">
<g id="graph0" class="graph" transform="scale(1 1) rotate(0) translate(4 659.6)">
<title>public.firefly_transactions</title>
<polygon fill="white" stroke="none" points="-4,4 -4,-659.6 978.19,-659.6 978.19,4 -4,4"/>
<!-- public.firefly_transactions -->
<g id="node1" class="node">
<title>public.firefly_transactions</title>
<polygon fill="#efefef" stroke="none" points="407.89,-573.8 407.89,-609.4 735.81,-609.4 735.81,-573.8 407.89,-573.8"/>
<polygon fill="none" stroke="black" points="407.89,-573.8 407.89,-609.4 735.81,-609.4 735.81,-573.8 407.89,-573.8"/>
<text text-anchor="start" x="414.89" y="-587.2" font-family="Arial Bold" font-size="18.00">public.firefly_transactions</text>
<text text-anchor="start" x="604.33" y="-587.2" font-family="Arial" font-size="14.00">    </text>
<text text-anchor="start" x="635.44" y="-587.2" font-family="Arial" font-size="14.00" fill="#666666">[BASE TABLE]</text>
<polygon fill="none" stroke="black" points="407.89,-543 407.89,-573.8 735.81,-573.8 735.81,-543 407.89,-543"/>
<text text-anchor="start" x="414.89" y="-555.2" font-family="Arial" font-size="14.00">id </text>
<text text-anchor="start" x="429.67" y="-555.2" font-family="Arial" font-size="14.00" fill="#666666">[uuid]</text>
<polygon fill="none" stroke="black" points="407.89,-512.2 407.89,-543 735.81,-543 735.81,-512.2 407.89,-512.2"/>
<text text-anchor="start" x="414.89" y="-524.4" font-family="Arial" font-size="14.00">transaction_id </text>
<text text-anchor="start" x="505.94" y="-524.4" font-family="Arial" font-size="14.00" fill="#666666">[uuid]</text>
<polygon fill="none" stroke="black" points="407.89,-481.4 407.89,-512.2 735.81,-512.2 735.81,-481.4 407.89,-481.4"/>
<text text-anchor="start" x="414.89" y="-493.6" font-family="Arial" font-size="14.00">firefly_id </text>
<text text-anchor="start" x="470.91" y="-493.6" font-family="Arial" font-size="14.00" fill="#666666">[text]</text>
<polygon fill="none" stroke="black" points="407.89,-450.6 407.89,-481.4 735.81,-481.4 735.81,-450.6 407.89,-450.6"/>
<text text-anchor="start" x="414.89" y="-462.8" font-family="Arial" font-size="14.00">firefly_link </text>
<text text-anchor="start" x="481.02" y="-462.8" font-family="Arial" font-size="14.00" fill="#666666">[text]</text>
<polygon fill="none" stroke="black" points="407.89,-419.8 407.89,-450.6 735.81,-450.6 735.81,-419.8 407.89,-419.8"/>
<text text-anchor="start" x="414.89" y="-432" font-family="Arial" font-size="14.00">user_id </text>
<text text-anchor="start" x="464.69" y="-432" font-family="Arial" font-size="14.00" fill="#666666">[uuid]</text>
<polygon fill="none" stroke="black" stroke-width="3" points="406.39,-418.3 406.39,-610.9 737.31,-610.9 737.31,-418.3 406.39,-418.3"/>
</g>
<!-- public.transactions -->
<g id="node2" class="node">
<title>public.transactions</title>
<polygon fill="#efefef" stroke="none" points="257.87,-258.8 257.87,-294.4 531.83,-294.4 531.83,-258.8 257.87,-258.8"/>
<polygon fill="none" stroke="black" points="257.87,-258.8 257.87,-294.4 531.83,-294.4 531.83,-258.8 257.87,-258.8"/>
<text text-anchor="start" x="264.87" y="-272.2" font-family="Arial Bold" font-size="18.00">public.transactions</text>
<text text-anchor="start" x="400.34" y="-272.2" font-family="Arial" font-size="14.00">    </text>
<text text-anchor="start" x="431.46" y="-272.2" font-family="Arial" font-size="14.00" fill="#666666">[BASE TABLE]</text>
<polygon fill="none" stroke="black" points="257.87,-228 257.87,-258.8 531.83,-258.8 531.83,-228 257.87,-228"/>
<text text-anchor="start" x="264.87" y="-240.2" font-family="Arial" font-size="14.00">id </text>
<text text-anchor="start" x="279.66" y="-240.2" font-family="Arial" font-size="14.00" fill="#666666">[uuid]</text>
<polygon fill="none" stroke="black" points="257.87,-197.2 257.87,-228 531.83,-228 531.83,-197.2 257.87,-197.2"/>
<text text-anchor="start" x="264.87" y="-209.4" font-family="Arial" font-size="14.00">month_id </text>
<text text-anchor="start" x="326.35" y="-209.4" font-family="Arial" font-size="14.00" fill="#666666">[uuid]</text>
<polygon fill="none" stroke="black" points="257.87,-166.4 257.87,-197.2 531.83,-197.2 531.83,-166.4 257.87,-166.4"/>
<text text-anchor="start" x="264.87" y="-178.6" font-family="Arial" font-size="14.00">amount </text>
<text text-anchor="start" x="315.46" y="-178.6" font-family="Arial" font-size="14.00" fill="#666666">[numeric(10,2)]</text>
<polygon fill="none" stroke="black" points="257.87,-135.6 257.87,-166.4 531.83,-166.4 531.83,-135.6 257.87,-135.6"/>
<text text-anchor="start" x="264.87" y="-147.8" font-family="Arial" font-size="14.00">date </text>
<text text-anchor="start" x="296.01" y="-147.8" font-family="Arial" font-size="14.00" fill="#666666">[timestamp with time zone]</text>
<polygon fill="none" stroke="black" points="257.87,-104.8 257.87,-135.6 531.83,-135.6 531.83,-104.8 257.87,-104.8"/>
<text text-anchor="start" x="264.87" y="-117" font-family="Arial" font-size="14.00">description </text>
<text text-anchor="start" x="336.47" y="-117" font-family="Arial" font-size="14.00" fill="#666666">[text]</text>
<polygon fill="none" stroke="black" points="257.87,-74 257.87,-104.8 531.83,-104.8 531.83,-74 257.87,-74"/>
<text text-anchor="start" x="264.87" y="-86.2" font-family="Arial" font-size="14.00">notes </text>
<text text-anchor="start" x="303.01" y="-86.2" font-family="Arial" font-size="14.00" fill="#666666">[text]</text>
<polygon fill="none" stroke="black" points="257.87,-43.2 257.87,-74 531.83,-74 531.83,-43.2 257.87,-43.2"/>
<text text-anchor="start" x="264.87" y="-55.4" font-family="Arial" font-size="14.00">split_mode </text>
<text text-anchor="start" x="336.47" y="-55.4" font-family="Arial" font-size="14.00" fill="#666666">[split_mode]</text>
</g>
<!-- public.firefly_transactions&#45;&gt;public.transactions -->
<g id="edge1" class="edge">
<title>public.firefly_transactions:transaction_id&#45;&gt;public.transactions:id</title>
<path fill="none" stroke="black" d="M396.51,-526.73C341.56,-516.86 368.87,-425.21 407.89,-373.6 442.48,-327.84 497.14,-383.29 531.83,-337.6 557.15,-304.25 574.7,-243.4 532.83,-243.4"/>
<polygon fill="black" stroke="black" points="396.59,-526.74 406.18,-532.06 401.9,-527.18 406.22,-527.54 406.22,-527.54 406.22,-527.54 401.9,-527.18 406.93,-523.09 396.59,-526.74"/>
<text text-anchor="start" x="7" y="-537.6" font-family="Arial" font-size="10.00">FOREIGN KEY (transaction_id) REFERENCES transactions(id) ON DELETE CASCADE</text>
</g>
<!-- public.users -->
<g id="node3" class="node">
<title>public.users</title>
<polygon fill="#efefef" stroke="none" points="636.36,-181.8 636.36,-217.4 861.34,-217.4 861.34,-181.8 636.36,-181.8"/>
<polygon fill="none" stroke="black" points="636.36,-181.8 636.36,-217.4 861.34,-217.4 861.34,-181.8 636.36,-181.8"/>
<text text-anchor="start" x="643.36" y="-195.2" font-family="Arial Bold" font-size="18.00">public.users</text>
<text text-anchor="start" x="729.85" y="-195.2" font-family="Arial" font-size="14.00">    </text>
<text text-anchor="start" x="760.96" y="-195.2" font-family="Arial" font-size="14.00" fill="#666666">[BASE TABLE]</text>
<polygon fill="none" stroke="black" points="636.36,-151 636.36,-181.8 861.34,-181.8 861.34,-151 636.36,-151"/>
<text text-anchor="start" x="643.36" y="-163.2" font-family="Arial" font-size="14.00">id </text>
<text text-anchor="start" x="658.15" y="-163.2" font-family="Arial" font-size="14.00" fill="#666666">[uuid]</text>
<polygon fill="none" stroke="black" points="636.36,-120.2 636.36,-151 861.34,-151 861.34,-120.2 636.36,-120.2"/>
<text text-anchor="start" x="643.36" y="-132.4" font-family="Arial" font-size="14.00">username </text>
<text text-anchor="start" x="709.51" y="-132.4" font-family="Arial" font-size="14.00" fill="#666666">[text]</text>
</g>
<!-- public.firefly_transactions&#45;&gt;public.users -->
<g id="edge2" class="edge">
<title>public.firefly_transactions:user_id&#45;&gt;public.users:id</title>
<path fill="none" stroke="black" d="M746.83,-432.49C758.36,-423.65 744.07,-394.95 735.81,-373.6 711.69,-311.2 660.32,-323.07 636.36,-260.6 621.37,-221.51 593.49,-166.4 635.36,-166.4"/>
<polygon fill="black" stroke="black" points="746.79,-432.5 735.96,-430.77 741.64,-433.9 737.46,-435.03 737.46,-435.03 737.46,-435.03 741.64,-433.9 738.31,-439.46 746.79,-432.5"/>
<text text-anchor="start" x="743.81" y="-445.2" font-family="Arial" font-size="10.00">FOREIGN KEY (user_id) REFERENCES users(id)</text>
</g>
</g>
</svg>
